<svg width="777" height="361" viewBox="0 0 777 361" fill="none" xmlns="http://www.w3.org/2000/svg">
<path d="M308.6 281.52L305.81 286.27L305.11 285.73C303.44 284.45 301.44 283.48 299.19 282.82C296.88 282.18 294.51 281.85 292.13 281.85C287.8 281.85 284.37 282.7 281.94 284.35C279.57 285.98 278.41 288.04 278.41 290.66C278.41 292.41 278.95 293.71 280.06 294.62C281.26 295.61 282.8 296.35 284.68 296.85C286.64 297.37 288.79 297.86 291.06 298.29C293.37 298.72 295.58 299.34 297.64 300.09C299.77 300.85 301.52 302.01 302.86 303.52C304.24 305.07 304.96 307.23 304.96 310C304.96 313.03 304.07 315.7 302.32 317.9C300.61 320.09 298.17 321.78 295.12 322.89C292.13 324 288.54 324.58 284.49 324.58C280.78 324.58 277.23 324 273.9 322.91C270.56 321.8 267.92 320.33 266.1 318.56L265.63 318.11L268.89 313.38L269.55 314.02C271.16 315.57 273.35 316.83 276.07 317.76C278.81 318.69 281.77 319.16 284.84 319.16C289.4 319.16 292.97 318.35 295.45 316.75C297.84 315.18 299 313.12 299 310.46C299 308.69 298.48 307.43 297.41 306.58C296.23 305.65 294.69 304.93 292.77 304.43C290.77 303.91 288.62 303.4 286.39 302.94C284.12 302.47 281.93 301.87 279.87 301.14C277.72 300.4 275.97 299.22 274.63 297.67C273.25 296.06 272.55 293.85 272.55 291.09C272.55 288.12 273.4 285.5 275.09 283.29C276.74 281.1 279.11 279.39 282.11 278.19C285.04 277.01 288.55 276.44 292.49 276.44C295.42 276.44 298.35 276.83 301.2 277.66C304.07 278.46 306.4 279.62 308.13 281.11L308.6 281.52Z" fill="black"/>
<path d="M356.08 285.67C354.39 282.7 352.01 280.41 349.02 278.82C346.05 277.23 342.44 276.45 338.29 276.45C333.42 276.45 328.98 277.69 325.08 280.16C321.2 282.64 318.11 286 315.86 290.21C313.61 294.4 312.46 299.23 312.46 304.55C312.46 308.66 313.35 312.25 315.08 315.22C316.81 318.23 319.37 320.56 322.65 322.17C325.91 323.76 329.79 324.58 334.16 324.58C337.94 324.58 341.51 323.92 344.77 322.62C348.07 321.34 350.77 319.52 352.84 317.3L353.25 316.85L350.34 312.43L349.68 313.17C348.01 315.01 345.84 316.47 343.24 317.5C340.62 318.53 337.69 319.07 334.51 319.07C329.17 319.07 325.08 317.79 322.38 315.27C319.68 312.77 318.31 309.1 318.31 304.37C318.31 303.65 318.33 302.93 318.37 302.22H357.95L358.05 301.58C358.15 300.82 358.28 299.99 358.4 299.1C358.52 298.19 358.59 297.26 358.59 296.36C358.59 292.19 357.72 288.6 356.07 285.65L356.08 285.67ZM352.92 297.27H319.16C319.57 295.62 320.15 294.07 320.87 292.65C322.56 289.29 324.94 286.62 327.95 284.68C330.94 282.74 334.39 281.77 338.21 281.77C341.51 281.77 344.38 282.45 346.75 283.81C349.08 285.15 350.82 287.13 351.91 289.69C352.82 291.77 353.15 294.31 352.92 297.26V297.27Z" fill="black"/>
<path d="M412.31 276.8L410.41 286.29C410.16 285.75 409.89 285.24 409.6 284.76C407.91 282.04 405.53 279.93 402.54 278.53C399.57 277.15 396.06 276.45 392.1 276.45C388.14 276.45 384.57 277.13 381.29 278.47C378.01 279.83 375.14 281.77 372.77 284.23C370.4 286.71 368.52 289.6 367.2 292.83C365.88 296.07 365.22 299.66 365.22 303.5C365.22 307.34 366.09 310.78 367.78 313.65C369.49 316.52 371.97 318.77 375.11 320.27C378.21 321.8 381.9 322.56 386.05 322.56C391.33 322.56 395.98 321.3 399.88 318.82C401.59 317.73 403.16 316.45 404.56 315L403.76 319.09C402.63 324.91 400.38 329.26 397.12 332.01C393.84 334.73 389.18 336.12 383.23 336.12C379.66 336.12 376.36 335.56 373.45 334.47C370.56 333.38 368.19 331.83 366.39 329.87L365.81 329.23L361.95 333.69L362.45 334.21C364.76 336.56 367.69 338.42 371.18 339.7C374.67 341 378.59 341.64 382.88 341.64C390.41 341.64 396.46 339.8 400.83 336.19C405.2 332.58 408.2 326.68 409.74 318.69L418.12 276.8H412.32H412.31ZM397.6 314.31C394.5 316.13 390.89 317.05 386.83 317.05C381.9 317.05 378 315.83 375.25 313.42C372.53 311.03 371.16 307.64 371.16 303.31C371.16 299.2 372.09 295.49 373.9 292.27C375.74 289.07 378.23 286.51 381.37 284.7C384.49 282.86 388.1 281.94 392.1 281.94C397.03 281.94 400.93 283.16 403.68 285.57C406.38 287.96 407.77 291.35 407.77 295.68C407.77 299.79 406.84 303.52 405 306.72C403.18 309.92 400.69 312.48 397.59 314.31H397.6Z" fill="black"/>
<path d="M476.92 276.8L467.47 324.24H461.59L462.89 317.7C461.43 319.25 459.82 320.51 458.02 321.5C454.33 323.54 450.1 324.6 445.47 324.6C441.3 324.6 437.79 323.73 435.09 322.06C432.32 320.35 430.43 317.91 429.44 314.78C428.47 311.71 428.37 308.07 429.15 303.99L434.56 276.81H440.52L435.07 304.27C434.16 308.89 434.68 312.57 436.56 315.19C438.42 317.77 441.8 319.09 446.61 319.09C451.42 319.09 455.85 317.69 459.18 314.92C462.5 312.15 464.75 307.92 465.82 302.39L470.96 276.8H476.92Z" fill="black"/>
<path d="M517.26 276.45L516.19 282.29H515.55C515.28 282.29 515.01 282.29 514.75 282.25C514.54 282.23 514.34 282.21 514.15 282.21C509.2 282.21 505.07 283.7 501.87 286.63C498.63 289.58 496.4 294.1 495.2 300.06L490.33 324.24H484.35L493.8 276.8H499.7L498.24 283.92C499.66 282.25 501.29 280.85 503.09 279.73C506.6 277.54 511.06 276.45 516.34 276.45H517.27H517.26Z" fill="black"/>
<path d="M563.71 276.8L561.85 286.19C561.69 285.86 561.54 285.55 561.35 285.24C559.8 282.39 557.51 280.18 554.56 278.68C551.65 277.19 548.08 276.45 543.93 276.45C540.09 276.45 536.5 277.15 533.24 278.58C530 279.98 527.13 281.99 524.72 284.5C522.33 287.04 520.45 290.05 519.17 293.48C517.87 296.88 517.23 300.68 517.23 304.75C517.23 308.82 518.08 312.34 519.79 315.32C521.5 318.31 523.94 320.64 527.05 322.23C530.12 323.8 533.74 324.6 537.78 324.6C543 324.6 547.62 323.32 551.5 320.82C553.07 319.81 554.49 318.65 555.77 317.35L554.41 324.24H560.21L569.66 276.8H563.7H563.71ZM549.33 316.21C546.26 318.11 542.66 319.08 538.66 319.08C533.73 319.08 529.87 317.78 527.19 315.24C524.53 312.72 523.19 309.09 523.19 304.47C523.19 300.16 524.1 296.26 525.89 292.87C527.71 289.49 530.2 286.8 533.32 284.86C536.44 282.92 540.01 281.93 543.95 281.93C548.88 281.93 552.74 283.21 555.42 285.73C558.08 288.23 559.44 291.88 559.44 296.54C559.44 300.85 558.51 304.77 556.72 308.18C554.9 311.58 552.43 314.29 549.33 316.21Z" fill="black"/>
<path d="M626.91 257.44L621.19 286.18C621.05 285.87 620.88 285.54 620.69 285.23C619.14 282.38 616.85 280.17 613.9 278.67C610.99 277.18 607.42 276.44 603.27 276.44C599.43 276.44 595.84 277.14 592.58 278.57C589.34 279.97 586.47 281.98 584.06 284.49C581.67 287.03 579.79 290.04 578.49 293.47C577.21 296.87 576.55 300.67 576.55 304.74C576.55 308.81 577.42 312.33 579.13 315.31C580.82 318.3 583.28 320.63 586.39 322.22C589.46 323.79 593.08 324.59 597.12 324.59C601.16 324.59 604.59 323.85 607.77 322.4C610.56 321.12 613.01 319.39 615.14 317.24L613.76 324.24H619.56L632.89 257.44H626.91ZM608.67 316.21C605.6 318.11 602 319.08 598 319.08C593.07 319.08 589.21 317.78 586.53 315.24C583.87 312.72 582.51 309.09 582.51 304.47C582.51 300.16 583.44 296.26 585.23 292.87C587.05 289.49 589.54 286.8 592.66 284.86C595.78 282.92 599.35 281.93 603.29 281.93C608.22 281.93 612.08 283.21 614.76 285.73C617.42 288.23 618.78 291.88 618.78 296.54C618.78 300.85 617.85 304.77 616.06 308.18C614.24 311.58 611.77 314.29 608.67 316.21Z" fill="black"/>
<path d="M681.45 285.73C679.72 282.78 677.24 280.47 674.1 278.86C670.98 277.25 667.23 276.45 662.98 276.45C657.76 276.45 653.05 277.69 648.99 280.16C644.92 282.62 641.71 286.02 639.39 290.25C637.08 294.48 635.9 299.35 635.9 304.74C635.9 308.72 636.79 312.25 638.52 315.22C640.25 318.21 642.75 320.56 645.91 322.17C649.07 323.76 652.78 324.58 656.99 324.58C662.21 324.58 666.92 323.32 670.98 320.87C675.02 318.39 678.26 315.01 680.58 310.76C682.89 306.53 684.07 301.66 684.07 296.29C684.07 292.22 683.18 288.68 681.45 285.72V285.73ZM657.35 319.08C652.42 319.08 648.56 317.78 645.88 315.24C643.22 312.72 641.86 309.09 641.86 304.47C641.86 300.16 642.79 296.26 644.58 292.87C646.4 289.49 648.89 286.8 652.01 284.86C655.13 282.92 658.7 281.93 662.64 281.93C667.57 281.93 671.43 283.21 674.11 285.73C676.77 288.23 678.11 291.88 678.11 296.54C678.11 300.85 677.2 304.77 675.41 308.18C673.59 311.58 671.12 314.29 668.02 316.21C664.95 318.11 661.35 319.08 657.35 319.08Z" fill="black"/>
<path d="M723.87 276.45L722.78 282.29H722.14C721.87 282.29 721.6 282.29 721.34 282.25C721.15 282.23 720.95 282.21 720.74 282.21C715.81 282.21 711.68 283.7 708.46 286.63C705.24 289.58 702.99 294.1 701.79 300.06L696.92 324.24H690.96L700.41 276.8H706.29L704.85 283.92C706.27 282.25 707.88 280.85 709.7 279.73C713.21 277.54 717.67 276.45 722.95 276.45H723.88H723.87Z" fill="black"/>
<path d="M770.3 276.8L768.44 286.19C768.3 285.86 768.13 285.55 767.97 285.24C766.4 282.39 764.13 280.18 761.18 278.68C758.27 277.19 754.7 276.45 750.55 276.45C746.69 276.45 743.1 277.15 739.86 278.58C736.6 279.98 733.73 281.99 731.34 284.5C728.93 287.04 727.07 290.05 725.77 293.48C724.49 296.88 723.83 300.68 723.83 304.75C723.83 308.82 724.7 312.34 726.39 315.32C728.1 318.31 730.56 320.64 733.65 322.23C736.75 323.8 740.36 324.6 744.38 324.6C749.6 324.6 754.24 323.32 758.12 320.82C759.67 319.81 761.09 318.65 762.37 317.35L761.03 324.24H766.83L776.28 276.8H770.3ZM755.94 316.21C752.87 318.11 749.27 319.08 745.27 319.08C740.34 319.08 736.48 317.78 733.8 315.24C731.14 312.72 729.78 309.09 729.78 304.47C729.78 300.16 730.71 296.26 732.5 292.87C734.3 289.49 736.79 286.8 739.93 284.86C743.05 282.92 746.62 281.93 750.56 281.93C755.47 281.93 759.33 283.21 762.01 285.73C764.69 288.23 766.03 291.88 766.03 296.54C766.03 300.85 765.12 304.77 763.31 308.18C761.51 311.58 759.04 314.29 755.94 316.21Z" fill="black"/>
<path d="M418.17 180.15C442.72 173.73 455.78 157.44 455.78 137.94C455.78 118.44 443.85 100.09 394.54 100.09H326.81C324.97 100.09 323.39 101.23 322.76 102.83L322.49 103.81L280.24 260.64H367.72C422.77 260.64 444.32 238.85 444.32 211.79C444.32 195.27 433.32 184.03 418.18 180.14L418.17 180.15ZM369.32 220.05H343.4L349.82 196.2H372.99C384.46 196.2 390.19 199.41 390.19 206.29C390.19 214.32 382.4 220.05 369.32 220.05ZM383.54 163.17H358.78L364.74 140.69H386.99C398.46 140.69 403.5 143.44 403.5 150.09C403.5 156.74 397.31 163.17 383.54 163.17Z" fill="#000D37"/>
<path d="M563.57 100.09H495.53C493.58 100.09 491.96 101.47 491.59 103.3L449.18 260.64H503.31L513.74 221.18H549.8C599.11 221.18 630.99 193.89 630.99 153.3C630.99 119.81 606.67 100.08 563.56 100.08L563.57 100.09ZM541.62 179.45H525.02L535.14 141.84H547.61C559.99 141.84 565.25 146.66 565.25 158.12C565.25 171.65 556.53 179.45 541.62 179.45Z" fill="#000D37"/>
<path d="M4.32997 260.65H61.8C63.7 260.65 65.37 259.38 65.86 257.54L133.99 5.42001C134.71 2.75001 132.7 0.109985 129.93 0.109985H72.46C70.56 0.109985 68.89 1.38 68.4 3.22L0.269973 255.34C-0.450027 258.01 1.55997 260.65 4.32997 260.65Z" fill="#000D37"/>
<path d="M61.21 360.61H118.68C120.58 360.61 122.25 359.34 122.74 357.5L190.87 105.38C191.59 102.71 189.58 100.07 186.81 100.07H129.34C127.44 100.07 125.77 101.34 125.28 103.18L57.15 355.3C56.43 357.97 58.44 360.61 61.21 360.61Z" fill="#2B50BB"/>
<path d="M172.35 260.65H229.82C231.72 260.65 233.39 259.37 233.88 257.54L274.88 105.39C275.6 102.72 273.59 100.09 270.82 100.09H213.35C211.45 100.09 209.78 101.37 209.29 103.2L168.29 255.35C167.57 258.02 169.58 260.65 172.35 260.65Z" fill="#000D37"/>
</svg>
